<svg width="16" height="16" viewBox="0 0 16 16" fill="none" xmlns="http://www.w3.org/2000/svg">
<path d="M4.73696 5.86005C4.8526 6.28327 5.10416 6.65675 5.4529 6.92297C5.80163 7.18919 6.22822 7.3334 6.66696 7.33338H9.33362C10.119 7.33344 10.8791 7.61073 11.48 8.11639C12.0809 8.62204 12.484 9.32359 12.6183 10.0974C13.0708 10.245 13.4558 10.5491 13.7042 10.955C13.9527 11.361 14.0482 11.8422 13.9738 12.3123C13.8994 12.7824 13.6598 13.2105 13.2981 13.5199C12.9364 13.8292 12.4762 13.9994 12.0003 14C11.5346 14.0004 11.0835 13.8383 10.7246 13.5416C10.3656 13.245 10.1215 12.8324 10.0342 12.375C9.94691 11.9176 10.0219 11.4441 10.2464 11.0361C10.4708 10.6281 10.8306 10.3112 11.2636 10.14C11.148 9.71682 10.8964 9.34335 10.5477 9.07712C10.1989 8.8109 9.77236 8.6667 9.33362 8.66671H6.66696C5.94555 8.66778 5.24344 8.43374 4.66696 8.00005V10.1134C5.11195 10.2707 5.48702 10.5802 5.72586 10.9873C5.96471 11.3943 6.05195 11.8727 5.97216 12.3379C5.89238 12.8031 5.65071 13.2251 5.28987 13.5293C4.92903 13.8335 4.47226 14.0004 4.00029 14.0004C3.52832 14.0004 3.07155 13.8335 2.71071 13.5293C2.34987 13.2251 2.1082 12.8031 2.02842 12.3379C1.94863 11.8727 2.03587 11.3943 2.27472 10.9873C2.51356 10.5802 2.88863 10.2707 3.33362 10.1134V5.88671C2.89161 5.73065 2.51842 5.42434 2.27919 5.02123C2.03996 4.61811 1.94987 4.14379 2.02465 3.68104C2.09942 3.21828 2.33431 2.79648 2.68833 2.48922C3.04235 2.18197 3.49301 2.00878 3.96168 1.99987C4.43036 1.99097 4.88728 2.14691 5.25271 2.44049C5.61815 2.73408 5.86889 3.14665 5.96119 3.60623C6.05349 4.06581 5.98149 4.54321 5.75775 4.95512C5.534 5.36704 5.17272 5.68731 4.73696 5.86005Z" fill="#928E8E"/>
</svg>
