<svg width="22" height="22" viewBox="0 0 22 22" fill="none" xmlns="http://www.w3.org/2000/svg">
<path d="M2.20001 8.47349C2.20001 8.1123 2.38385 7.77345 2.69337 7.56413L10.32 2.40649C10.7271 2.13119 11.2729 2.13119 11.68 2.40649L19.3067 7.56413C19.6162 7.77345 19.8 8.1123 19.8 8.47349V18.1263C19.8 19.0506 19.012 19.8 18.04 19.8H3.96001C2.98799 19.8 2.20001 19.0506 2.20001 18.1263V8.47349Z" fill="#5653FC"/>
<path d="M6.60001 15.95H15.4M10.32 2.40649L2.69337 7.56413C2.38385 7.77345 2.20001 8.1123 2.20001 8.47349V18.1263C2.20001 19.0506 2.98799 19.8 3.96001 19.8H18.04C19.012 19.8 19.8 19.0506 19.8 18.1263V8.47349C19.8 8.1123 19.6162 7.77345 19.3067 7.56413L11.68 2.40649C11.2729 2.13119 10.7271 2.13119 10.32 2.40649Z" stroke="white" stroke-linecap="round" stroke-linejoin="round"/>
</svg>
