<svg width="10" height="10" viewBox="0 0 10 10" fill="none" xmlns="http://www.w3.org/2000/svg">
<path d="M2.28172 3.21688C2.3781 3.56954 2.58774 3.88075 2.87837 4.10259C3.169 4.32443 3.5245 4.44459 3.89014 4.44457H6.11247C6.76696 4.44462 7.40042 4.67568 7.9012 5.09703C8.40198 5.51838 8.73793 6.10296 8.84983 6.74774C9.2269 6.87075 9.54777 7.12413 9.75481 7.4624C9.96186 7.80067 10.0415 8.20166 9.97948 8.59337C9.91744 8.98508 9.71778 9.34184 9.41634 9.5996C9.1149 9.85736 8.73144 9.99923 8.3348 9.99973C7.94674 10 7.57074 9.86493 7.27163 9.61773C6.97252 9.37054 6.76905 9.02673 6.69631 8.6456C6.62356 8.26447 6.6861 7.8699 6.87314 7.52993C7.06017 7.18997 7.35999 6.92591 7.72088 6.78329C7.62451 6.43063 7.41487 6.11942 7.12424 5.89759C6.8336 5.67575 6.4781 5.55559 6.11247 5.5556H3.89014C3.28893 5.55649 2.70382 5.36147 2.22339 5.00009V6.76107C2.59423 6.89212 2.90681 7.15004 3.10585 7.48925C3.3049 7.82845 3.3776 8.22709 3.31111 8.61471C3.24462 9.00233 3.04322 9.35397 2.74251 9.60746C2.44179 9.86096 2.06113 10 1.6678 10C1.27448 10 0.893814 9.86096 0.5931 9.60746C0.292386 9.35397 0.090984 9.00233 0.0244945 8.61471C-0.0419951 8.22709 0.0307089 7.82845 0.229755 7.48925C0.428802 7.15004 0.741373 6.89212 1.11222 6.76107V3.2391C0.743856 3.10906 0.432854 2.85382 0.233485 2.51791C0.0341151 2.18201 -0.0409625 1.78677 0.021353 1.40117C0.0836685 1.01557 0.27942 0.66409 0.574449 0.408063C0.869478 0.152037 1.24505 0.00772218 1.63563 0.000301135C2.02621 -0.00711991 2.407 0.122824 2.71154 0.367459C3.01608 0.612093 3.22505 0.955884 3.30197 1.33884C3.37889 1.72179 3.31889 2.1196 3.13242 2.46283C2.94596 2.80607 2.64488 3.07294 2.28172 3.21688Z" fill="#6F6161"/>
</svg>
