<svg width="14" height="14" viewBox="0 0 14 14" fill="none" xmlns="http://www.w3.org/2000/svg">
<path d="M6.99231 0C10.8542 0 13.9846 3.1339 13.9846 7C13.9846 10.8661 10.8542 14 6.99231 14C3.13046 14 0 10.8661 0 7C0 3.1339 3.13046 0 6.99231 0ZM6.99231 1.4C5.50873 1.4 4.08591 1.99 3.03686 3.0402C1.98781 4.09041 1.39846 5.51479 1.39846 7C1.39846 8.48521 1.98781 9.9096 3.03686 10.9598C4.08591 12.01 5.50873 12.6 6.99231 12.6C8.47589 12.6 9.8987 12.01 10.9478 10.9598C11.9968 9.9096 12.5862 8.48521 12.5862 7C12.5862 5.51479 11.9968 4.09041 10.9478 3.0402C9.8987 1.99 8.47589 1.4 6.99231 1.4ZM6.99231 2.8C7.16357 2.80002 7.32887 2.86297 7.45686 2.9769C7.58484 3.09083 7.66661 3.24782 7.68664 3.4181L7.69154 3.5V6.7102L9.58436 8.6051C9.70976 8.73107 9.78257 8.9001 9.78799 9.07787C9.79341 9.25563 9.73104 9.4288 9.61355 9.56219C9.49606 9.69559 9.33225 9.77921 9.1554 9.79608C8.97854 9.81295 8.80191 9.76179 8.66137 9.653L8.59564 9.5949L6.49795 7.4949C6.38928 7.38601 6.31948 7.2443 6.29937 7.0917L6.29308 7V3.5C6.29308 3.31435 6.36675 3.1363 6.49788 3.00503C6.62901 2.87375 6.80686 2.8 6.99231 2.8Z" fill="white"/>
</svg>
