<svg width="8" height="14" viewBox="0 0 8 14" fill="none" xmlns="http://www.w3.org/2000/svg">
<path d="M1.58525 0.277045L7.79723 6.48285C7.87097 6.55673 7.92307 6.63676 7.95355 6.72295C7.98452 6.80915 8 6.90149 8 7C8 7.0985 7.98452 7.19085 7.95355 7.27704C7.92307 7.36324 7.87097 7.44327 7.79723 7.51715L1.58525 13.7414C1.41321 13.9138 1.19816 14 0.940094 14C0.682029 14 0.460831 13.9077 0.276499 13.723C0.0921673 13.5383 1.37131e-06 13.3228 1.34978e-06 13.0765C1.32825e-06 12.8303 0.0921673 12.6148 0.276499 12.4301L5.69585 7L0.276498 1.56992C0.104455 1.39754 0.0184339 1.18526 0.0184339 0.933088C0.0184338 0.680423 0.1106 0.461741 0.294932 0.277045C0.479263 0.0923478 0.694317 -3.14991e-07 0.940092 -3.36478e-07C1.18587 -3.57964e-07 1.40092 0.0923477 1.58525 0.277045Z" fill="#6F6161"/>
</svg>
