<svg width="15" height="15" viewBox="0 0 15 15" fill="none" xmlns="http://www.w3.org/2000/svg">
<path d="M7.5 14.2241C6.61697 14.2241 5.74259 14.0502 4.92678 13.7123C4.11097 13.3744 3.36971 12.8791 2.74532 12.2547C2.12092 11.6303 1.62563 10.889 1.28771 10.0732C0.949787 9.25741 0.775862 8.38303 0.775862 7.5C0.775862 6.61697 0.949787 5.74259 1.28771 4.92678C1.62563 4.11097 2.12092 3.36971 2.74532 2.74532C3.36971 2.12092 4.11097 1.62563 4.92678 1.28771C5.74259 0.949787 6.61697 0.775862 7.5 0.775862C9.28335 0.775862 10.9937 1.4843 12.2547 2.74532C13.5157 4.00634 14.2241 5.71665 14.2241 7.5C14.2241 9.28335 13.5157 10.9937 12.2547 12.2547C10.9937 13.5157 9.28335 14.2241 7.5 14.2241Z" stroke="#928E8E" stroke-width="1.5" stroke-linecap="round" stroke-linejoin="round"/>
<path d="M6.00584 6.00574C5.63228 5.25862 4.13802 5.25862 3.76446 6.00574M11.2357 6.00574C10.8622 5.25862 9.36791 5.25862 8.99434 6.00574M9.36791 9.74138C9.12443 9.98987 8.83383 10.1873 8.5131 10.3221C8.19237 10.4568 7.84798 10.5262 7.50009 10.5262C7.1522 10.5262 6.80781 10.4568 6.48708 10.3221C6.16636 10.1873 5.87575 9.98987 5.63228 9.74138" stroke="#928E8E" stroke-width="1.5" stroke-linecap="round" stroke-linejoin="round"/>
</svg>
