<svg width="13" height="22" viewBox="0 0 13 22" fill="none" xmlns="http://www.w3.org/2000/svg">
<path d="M1.44815 14.3839C1.44902 14.4758 1.43156 14.5669 1.39679 14.652C1.36202 14.7371 1.31064 14.8144 1.24566 14.8794C1.18067 14.9443 1.10338 14.9957 1.01831 15.0305C0.933239 15.0653 0.842088 15.0827 0.750189 15.0819C0.563298 15.0802 0.384517 15.0053 0.252361 14.8731C0.120204 14.741 0.0452483 14.5622 0.0436394 14.3753L-2.80357e-05 5.69699C0.217592 3.96748 0.833944 2.62525 1.85833 1.69965C3.14974 0.534235 4.57429 0.0460208 6.15418 0.00235373C7.76486 -0.0420294 9.41777 0.539962 10.7722 1.89436C11.8116 2.93378 12.4244 4.15074 12.5983 5.60035L12.7823 17.9582C12.6713 19.0785 12.2311 20.0069 11.4687 20.7106C10.4994 21.6026 9.50654 21.9942 8.48286 21.9999C7.28524 22.0078 6.18497 21.6463 5.2021 20.6634C4.42038 19.8817 3.96868 18.8902 3.84841 17.6561L3.73602 6.82875C3.70739 5.94109 3.85557 5.24886 4.21923 4.75349C4.46075 4.42166 4.77976 4.15393 5.14847 3.97363C5.51717 3.79334 5.92437 3.70595 6.33458 3.71908C7.11844 3.74127 7.78419 4.08058 8.29889 4.70982C8.64966 5.13933 8.84938 5.65833 8.90021 6.29616L9.02047 16.2666C9.02181 16.3584 9.00486 16.4495 8.97062 16.5346C8.93638 16.6198 8.88552 16.6973 8.82102 16.7626C8.75652 16.8279 8.67967 16.8797 8.59494 16.915C8.51021 16.9503 8.41931 16.9683 8.32752 16.9681C8.14062 16.9677 7.96138 16.8938 7.82842 16.7624C7.69546 16.6311 7.61942 16.4528 7.61668 16.2659L7.49856 6.34484C7.4735 6.03344 7.37901 5.78861 7.21651 5.59032C6.95881 5.27535 6.67891 5.13289 6.31239 5.12287C6.12594 5.11647 5.94081 5.15625 5.77345 5.23868C5.6061 5.32111 5.46171 5.44363 5.35314 5.59533C5.20567 5.79577 5.12049 6.19737 5.13982 6.81658L5.25006 17.5974C5.33453 18.4507 5.64593 19.1343 6.18926 19.6776C6.87219 20.3606 7.60808 20.6025 8.45709 20.5968C9.13357 20.5932 9.79574 20.3319 10.5116 19.6734C11.0177 19.2059 11.3076 18.5938 11.3821 17.8837L11.201 5.68052C11.0707 4.62678 10.6047 3.69975 9.78643 2.88153C8.72554 1.82063 7.45203 1.37322 6.21002 1.40686C4.94152 1.44122 3.83338 1.82206 2.80756 2.74766C2.04875 3.43202 1.57271 4.46929 1.39661 5.79935L1.44886 14.3846L1.44815 14.3839Z" fill="#6F6161"/>
</svg>
