<svg width="18" height="22" viewBox="0 0 18 22" fill="none" xmlns="http://www.w3.org/2000/svg">
<g clip-path="url(#clip0_1_766)">
<path d="M4.8004 13.948C4.5934 13.948 4.4539 13.9678 4.3819 13.9876V15.2834C4.4674 15.3032 4.57427 15.3087 4.72165 15.3087C5.26052 15.3087 5.5924 15.0425 5.5924 14.5926C5.5924 14.19 5.30665 13.948 4.8004 13.948ZM8.72327 13.9612C8.49827 13.9612 8.35202 13.981 8.2654 14.0008V16.8718C8.35202 16.8916 8.49152 16.8916 8.61752 16.8916C9.53665 16.8982 10.1351 16.4032 10.1351 15.356C10.1419 14.443 9.59627 13.9612 8.72327 13.9612Z" fill="#EB5757"/>
<path d="M11.25 0H2.25C1.65326 0 1.08097 0.231785 0.65901 0.644365C0.237053 1.05694 0 1.61652 0 2.2V19.8C0 20.3835 0.237053 20.9431 0.65901 21.3556C1.08097 21.7682 1.65326 22 2.25 22H15.75C16.3467 22 16.919 21.7682 17.341 21.3556C17.7629 20.9431 18 20.3835 18 19.8V6.6L11.25 0ZM6.18525 15.609C5.83763 15.928 5.32462 16.071 4.72725 16.071C4.61142 16.0722 4.49564 16.0656 4.38075 16.0512V17.6198H3.375V13.2902C3.82889 13.224 4.28751 13.1938 4.74638 13.2C5.373 13.2 5.8185 13.3166 6.11888 13.5509C6.40462 13.7731 6.59812 14.1372 6.59812 14.5662C6.597 14.9974 6.45075 15.3615 6.18525 15.609ZM10.4681 17.0995C9.99563 17.4834 9.27675 17.666 8.39812 17.666C7.87162 17.666 7.49925 17.633 7.24613 17.6V13.2913C7.70018 13.2265 8.15866 13.196 8.6175 13.2C9.46912 13.2 10.0226 13.3496 10.4546 13.6686C10.9215 14.0074 11.214 14.5475 11.214 15.323C11.214 16.1623 10.9001 16.742 10.4681 17.0995ZM14.625 14.047H12.9015V15.0491H14.5125V15.8565H12.9015V17.6209H11.8822V13.233H14.625V14.047ZM11.25 7.7H10.125V2.2L15.75 7.7H11.25Z" fill="#EB5757"/>
</g>
<defs>
<clipPath id="clip0_1_766">
<rect width="18" height="22" fill="white"/>
</clipPath>
</defs>
</svg>
