<svg width="13" height="13" viewBox="0 0 13 13" fill="none" xmlns="http://www.w3.org/2000/svg">
<g clip-path="url(#clip0_1_535)">
<path d="M13.2573 6.9936C12.4834 7.17438 11.805 7.62938 11.7014 7.78375C11.676 7.82133 11.6151 7.78883 11.5297 7.7086C11.545 5.89266 11.5521 3.03266 11.4719 1.625C11.416 0.644923 11.0514 0.434689 10.7274 0.410314C10.2145 0.370704 10.0236 0.666251 9.95045 1.58539C9.83568 3.03469 9.84279 4.56828 9.77982 4.87602C9.77982 4.87602 9.56146 4.08586 8.76217 3.96906C7.89685 3.84313 7.7506 4.98063 7.7506 4.98063C7.7506 4.98063 7.23162 4.19352 6.41709 4.5043C5.73865 4.76328 5.73154 5.6936 5.73154 5.6936C5.43295 5.82563 5.07951 4.21586 4.77787 2.5675C4.60826 1.63719 3.4606 1.95102 3.45146 2.82242C3.43724 4.13461 3.95013 7.98992 4.00802 8.40938C4.25279 10.1654 4.95763 12.5938 7.99232 12.5938C9.54826 12.5938 10.248 12.3104 11.1144 11.3384C11.7918 10.5777 12.0822 9.6525 13.365 8.79735C14.2973 8.17578 14.927 8.2936 14.926 7.68422C14.926 7.2282 14.409 6.72445 13.2573 6.9936Z" fill="#FFCA28"/>
<path d="M7.69681 6.79356C7.71509 6.76005 7.98118 6.5752 8.04821 6.68387C8.50017 7.40903 9.37868 7.28411 9.61126 6.5427C9.63868 6.45536 9.81439 7.91481 8.92775 8.26926C8.66267 8.37489 8.30618 8.37997 8.11626 8.16669C7.95681 7.98794 7.78923 8.01739 7.43173 8.23372C7.18493 8.38301 6.69032 8.27333 6.49228 8.06411C6.29423 7.85489 6.15712 7.6213 6.07181 7.34505C6.0454 7.26075 6.03829 7.1277 6.13478 7.08301C6.17032 7.06778 7.14329 7.82036 7.69681 6.79356Z" fill="#FFB300"/>
<path d="M11.5338 1.51635C11.4677 0.31791 10.6979 0.409316 10.6979 0.409316C10.6979 0.409316 11.2027 0.653066 11.2341 1.5265C11.2646 2.37252 11.3113 5.39603 11.3469 7.27088C11.3469 7.8051 10.6024 7.80307 9.84984 8.05393C9.76047 8.08338 9.69242 7.994 9.72898 7.90768C9.85492 7.61111 10.1505 6.99767 9.95344 5.59611C9.88437 5.10252 9.75133 4.74908 9.65281 4.56932C9.30445 3.93252 8.62398 3.95994 8.62398 3.95994C8.62398 3.95994 9.1125 4.07877 9.33086 4.63432C9.47914 5.0101 9.83867 6.11408 9.46289 7.43135C9.37555 7.73807 9.15516 8.10064 8.62398 8.05494C8.49805 8.04377 8.17305 7.96557 8.14867 7.67408C8.13141 7.46486 8.14562 7.19268 8.13445 6.94385C8.11719 6.54978 7.97805 5.54838 7.83383 5.08424C7.74242 4.78971 7.42961 4.43322 6.75625 4.42408C6.75625 4.42408 7.05891 4.46572 7.36258 5.02127C7.42961 5.14416 7.53422 5.41533 7.61039 5.8226C7.66117 6.19635 7.80742 7.30236 7.61648 7.69744C7.44891 8.04275 6.74609 8.17986 6.46883 7.84471C5.96508 7.23533 5.78633 5.2833 5.78633 5.2833C5.78633 5.2833 5.72336 5.41736 5.6868 5.64588C5.43594 5.37268 5.19625 4.00158 4.87125 2.60713C4.78086 2.21814 4.53305 1.88299 4.0293 2.02619C4.0293 2.02619 4.4782 2.07189 4.57469 2.66197C4.71281 3.50291 4.99109 4.67088 5.1343 5.2833C5.26531 5.84189 5.45117 6.02268 5.66344 6.07752V6.08564C5.68172 6.42182 5.72641 6.97736 5.85133 7.40799C6.0707 8.15955 6.26367 8.25502 6.45664 8.37182C6.89641 8.63689 7.66117 8.45916 7.89984 8.16361C8.04203 8.33525 8.25531 8.44697 8.50109 8.47033C8.51734 8.47236 8.65547 8.46932 8.79563 8.46221C8.88195 8.45814 8.92461 8.56377 8.86062 8.62166C8.56406 8.89283 8.32133 9.2483 8.15781 9.76728C8.03492 10.1563 7.99633 10.4579 7.99125 10.6732C7.98922 10.7606 8.11109 10.7809 8.13648 10.6976C8.17305 10.5757 8.21469 10.4437 8.25633 10.332C8.40359 9.93588 8.70422 8.72525 10.3495 8.31799C10.6593 8.2408 11.0452 8.20525 11.3611 8.04682V8.05393C11.3611 8.05393 11.3845 8.03971 11.42 8.01635C11.5246 7.95643 11.6201 7.88127 11.7003 7.78275C11.7064 7.77463 11.7115 7.76447 11.7155 7.75229C11.7237 7.74213 11.7318 7.73299 11.7399 7.72283C11.7399 7.72283 11.613 2.93619 11.5338 1.51635ZM14.3277 8.08236C13.9875 8.17885 13.4777 8.34744 13.0958 8.60236C12.197 9.20158 11.7988 9.78557 11.4454 10.3503C11.2697 10.6316 11.1031 10.8967 10.8888 11.1374C10.0814 12.0443 9.4832 12.3622 8.01664 12.3988C7.64086 12.4079 7.18688 12.5298 7.18688 12.5298C7.43469 12.5714 7.70281 12.5938 7.99125 12.5938C9.54719 12.5938 10.247 12.3104 11.1133 11.3385C11.7907 10.5778 12.0812 9.65252 13.3639 8.79736C14.2536 8.20424 14.866 8.28244 14.9198 7.76143C14.9219 7.76143 14.8102 7.94627 14.3277 8.08236Z" fill="#EDA600"/>
</g>
<defs>
<clipPath id="clip0_1_535">
<rect width="13" height="13" fill="white"/>
</clipPath>
</defs>
</svg>
