<svg width="22" height="22" viewBox="0 0 22 22" fill="none" xmlns="http://www.w3.org/2000/svg">
<path d="M4.15484 10.0222C4.15484 5.70214 7.65696 2.20001 11.9771 2.20001C16.2972 2.20001 19.7993 5.70214 19.7993 10.0222C19.7993 11.1467 19.562 12.2158 19.1348 13.1821L19.8008 17.8437L15.8058 16.845C14.6741 17.4814 13.368 17.8445 11.9771 17.8445M2.20021 14.9111C2.20021 15.6139 2.34848 16.2821 2.61546 16.886L2.19928 19.7995L4.6959 19.1753C5.40317 19.5731 6.21941 19.8 7.08863 19.8C9.78844 19.8 11.9771 17.6112 11.9771 14.9111C11.9771 12.2111 9.78844 10.0222 7.08863 10.0222C4.38883 10.0222 2.20021 12.2111 2.20021 14.9111Z" stroke="#121212" stroke-linecap="round" stroke-linejoin="round"/>
</svg>
