<svg width="24" height="24" viewBox="0 0 24 24" fill="none" xmlns="http://www.w3.org/2000/svg">
<path d="M1.40002 21.5999C1.39996 22.1522 1.84763 22.5999 2.39991 22.6C2.9522 22.6001 3.39996 22.1524 3.40002 21.6001L1.40002 21.5999ZM2.40043 17.9996L3.40043 17.9997L2.40043 17.9996ZM12.6 15.4C13.1523 15.4 13.6 14.9523 13.6 14.4C13.6 13.8477 13.1523 13.4 12.6 13.4V15.4ZM21.6 16.6C22.1523 16.6 22.6 16.1523 22.6 15.6C22.6 15.0477 22.1523 14.6 21.6 14.6V16.6ZM16.2 14.6C15.6477 14.6 15.2 15.0477 15.2 15.6C15.2 16.1523 15.6477 16.6 16.2 16.6V14.6ZM17.9 18.2999C17.9 18.8521 18.3477 19.2999 18.9 19.2999C19.4523 19.2999 19.9 18.8521 19.9 18.2999H17.9ZM19.9 12.8999C19.9 12.3476 19.4523 11.8999 18.9 11.8999C18.3477 11.8999 17.9 12.3476 17.9 12.8999H19.9ZM13.4 6C13.4 7.43594 12.236 8.6 10.8 8.6V10.6C13.3405 10.6 15.4 8.54051 15.4 6H13.4ZM10.8 8.6C9.36408 8.6 8.20002 7.43594 8.20002 6H6.20002C6.20002 8.54051 8.25951 10.6 10.8 10.6V8.6ZM8.20002 6C8.20002 4.56406 9.36408 3.4 10.8 3.4V1.4C8.25951 1.4 6.20002 3.45949 6.20002 6H8.20002ZM10.8 3.4C12.236 3.4 13.4 4.56406 13.4 6H15.4C15.4 3.45949 13.3405 1.4 10.8 1.4V3.4ZM3.40002 21.6001L3.40043 17.9997L1.40043 17.9995L1.40002 21.5999L3.40002 21.6001ZM6.00043 13.4C3.46012 13.4 1.40071 15.4592 1.40043 17.9995L3.40043 17.9997C3.40059 16.5639 4.5646 15.4 6.00043 15.4V13.4ZM6.00043 15.4H12.6V13.4H6.00043V15.4ZM21.6 14.6H18.9V16.6H21.6V14.6ZM18.9 14.6H16.2V16.6H18.9V14.6ZM19.9 18.2999V15.6H17.9V18.2999H19.9ZM19.9 15.6V12.8999H17.9V15.6H19.9Z" fill="#464148"/>
</svg>
