<svg width="16" height="16" viewBox="0 0 16 16" fill="none" xmlns="http://www.w3.org/2000/svg">
<path fill-rule="evenodd" clip-rule="evenodd" d="M11.1133 8.75333C12.0267 9.37333 12.6667 10.2133 12.6667 11.3333V13.3333H14.6667C15.0333 13.3333 15.3333 13.0333 15.3333 12.6667V11.3333C15.3333 9.87999 12.9533 9.01999 11.1133 8.75333Z" fill="#928E8E"/>
<path d="M5.99967 7.99996C7.47243 7.99996 8.66634 6.80605 8.66634 5.33329C8.66634 3.86053 7.47243 2.66663 5.99967 2.66663C4.52692 2.66663 3.33301 3.86053 3.33301 5.33329C3.33301 6.80605 4.52692 7.99996 5.99967 7.99996Z" fill="#928E8E"/>
<path fill-rule="evenodd" clip-rule="evenodd" d="M10.0003 7.99996C11.4737 7.99996 12.667 6.80663 12.667 5.33329C12.667 3.85996 11.4737 2.66663 10.0003 2.66663C9.68699 2.66663 9.39366 2.73329 9.11366 2.82663C9.68734 3.5361 10.0003 4.42089 10.0003 5.33329C10.0003 6.24569 9.68734 7.13048 9.11366 7.83996C9.39366 7.93329 9.68699 7.99996 10.0003 7.99996ZM6.00033 8.66663C4.22033 8.66663 0.666992 9.55996 0.666992 11.3333V12.6666C0.666992 13.0333 0.966992 13.3333 1.33366 13.3333H10.667C11.0337 13.3333 11.3337 13.0333 11.3337 12.6666V11.3333C11.3337 9.55996 7.78033 8.66663 6.00033 8.66663Z" fill="#928E8E"/>
</svg>
