<svg width="22" height="22" viewBox="0 0 22 22" fill="none" xmlns="http://www.w3.org/2000/svg">
<path d="M15.9501 2.20001H6.04994C4.83492 2.20001 3.84995 3.18498 3.84994 4.4L3.84985 17.5999C3.84985 18.815 4.83482 19.8 6.04984 19.8L15.9499 19.8C17.1649 19.8 18.1499 18.8151 18.1499 17.6001L18.1501 4.40005C18.1502 3.18501 17.1652 2.20001 15.9501 2.20001Z" fill="#5653FC"/>
<path d="M7.7002 6.60001H14.3002M7.7002 9.90001H14.3002M7.7002 13.2H11.0002M6.04994 2.20001H15.9501C17.1652 2.20001 18.1502 3.18501 18.1501 4.40005L18.1499 17.6001C18.1499 18.8151 17.1649 19.8 15.9499 19.8L6.04984 19.8C4.83482 19.8 3.84985 18.815 3.84985 17.5999L3.84994 4.4C3.84995 3.18498 4.83492 2.20001 6.04994 2.20001Z" stroke="white" stroke-linecap="round" stroke-linejoin="round"/>
</svg>
