<svg width="27" height="27" viewBox="0 0 27 27" fill="none" xmlns="http://www.w3.org/2000/svg">
<path d="M16.8752 2.70001V6.75001C16.8752 7.4956 17.4796 8.10001 18.2252 8.10001H22.2752M9.45021 8.10001H12.1502M9.45021 12.15H17.5502M9.45021 16.2H17.5502M20.2502 4.72501C19.6494 4.18742 19.0259 3.54981 18.6323 3.1357C18.3704 2.86014 18.0085 2.70001 17.6283 2.70001H7.4249C5.93373 2.70001 4.72491 3.90883 4.7249 5.4L4.72479 21.5999C4.72478 23.0911 5.93361 24.2999 7.42478 24.2999L19.5748 24.3C21.066 24.3 22.2748 23.0912 22.2748 21.6001L22.2752 7.28757C22.2752 6.94238 22.1435 6.61055 21.9039 6.36204C21.4609 5.90249 20.7211 5.14634 20.2502 4.72501Z" stroke="#5653FC" stroke-width="1.7" stroke-linecap="round" stroke-linejoin="round"/>
</svg>
