<svg width="20" height="20" viewBox="0 0 20 20" fill="none" xmlns="http://www.w3.org/2000/svg">
<path d="M16 13C16 13.5523 16.4477 14 17 14C17.5523 14 18 13.5523 18 13H16ZM2 13C2 13.5523 2.44772 14 3 14C3.55228 14 4 13.5523 4 13H2ZM4.75 4.5H15.25V2.5H4.75V4.5ZM16 5.19231V13H18V5.19231H16ZM4 13V5.19231H2V13H4ZM15.25 4.5C15.6961 4.5 16 4.84129 16 5.19231H18C18 3.67405 16.7369 2.5 15.25 2.5V4.5ZM4.75 2.5C3.26308 2.5 2 3.67405 2 5.19231H4C4 4.84129 4.30392 4.5 4.75 4.5V2.5ZM3 14.5H17V12.5H3V14.5ZM17 14.5V15.5H19V14.5H17ZM17 15.5H3V17.5H17V15.5ZM3 15.5V14.5H1V15.5H3ZM3 15.5H3H1C1 16.6046 1.89543 17.5 3 17.5V15.5ZM17 15.5V17.5C18.1046 17.5 19 16.6046 19 15.5H17ZM17 14.5H19C19 13.3954 18.1046 12.5 17 12.5V14.5ZM3 12.5C1.89543 12.5 1 13.3954 1 14.5H3H3V12.5Z" fill="#5653FC" fill-opacity="0.9"/>
</svg>
