<svg width="21" height="26" viewBox="0 0 21 26" fill="none" xmlns="http://www.w3.org/2000/svg">
<g clip-path="url(#clip0_1_395)">
<path d="M5.60046 16.484C5.35896 16.484 5.19621 16.5074 5.11221 16.5308V18.0622C5.21196 18.0856 5.33665 18.0921 5.50859 18.0921C6.13728 18.0921 6.52446 17.7775 6.52446 17.2458C6.52446 16.77 6.19109 16.484 5.60046 16.484ZM10.1772 16.4996C9.91465 16.4996 9.74403 16.523 9.64296 16.5464V19.9394C9.74403 19.9628 9.90678 19.9628 10.0538 19.9628C11.1261 19.9706 11.8243 19.3856 11.8243 18.148C11.8322 17.069 11.1957 16.4996 10.1772 16.4996Z" fill="#EB5757"/>
<path d="M13.125 0H2.625C1.92881 0 1.26113 0.273928 0.768845 0.761522C0.276562 1.24912 0 1.91044 0 2.6V23.4C0 24.0896 0.276562 24.7509 0.768845 25.2385C1.26113 25.7261 1.92881 26 2.625 26H18.375C19.0712 26 19.7389 25.7261 20.2312 25.2385C20.7234 24.7509 21 24.0896 21 23.4V7.8L13.125 0ZM7.21613 18.447C6.81056 18.824 6.21206 18.993 5.51512 18.993C5.37999 18.9945 5.24492 18.9866 5.11088 18.9696V20.8234H3.9375V15.7066C4.46703 15.6284 5.00209 15.5927 5.53744 15.6C6.2685 15.6 6.78825 15.7378 7.13869 16.0147C7.47206 16.2773 7.69781 16.7076 7.69781 17.2146C7.6965 17.7242 7.52588 18.1545 7.21613 18.447ZM12.2128 20.2085C11.6616 20.6622 10.8229 20.878 9.79781 20.878C9.18356 20.878 8.74912 20.839 8.45381 20.8V15.7079C8.98354 15.6313 9.51843 15.5952 10.0538 15.6C11.0473 15.6 11.6931 15.7768 12.1971 16.1538C12.7418 16.5542 13.083 17.1925 13.083 18.109C13.083 19.1009 12.7168 19.786 12.2128 20.2085ZM17.0625 16.601H15.0518V17.7853H16.9312V18.7395H15.0518V20.8247H13.8626V15.639H17.0625V16.601ZM13.125 9.1H11.8125V2.6L18.375 9.1H13.125Z" fill="#EB5757"/>
</g>
<defs>
<clipPath id="clip0_1_395">
<rect width="21" height="26" fill="white"/>
</clipPath>
</defs>
</svg>
