<svg width="18" height="20" viewBox="0 0 18 20" fill="none" xmlns="http://www.w3.org/2000/svg">
<path d="M17.2698 8.64778L2.17284 0.19884C1.92129 0.0521491 1.63163 -0.0159933 1.34106 0.00316486C1.0505 0.022323 0.772293 0.127907 0.542181 0.306355C0.307175 0.491773 0.136548 0.746508 0.054524 1.0344C-0.0275001 1.32229 -0.0167529 1.6287 0.0852397 1.91013L2.6029 8.94345C2.62837 9.01358 2.67459 9.07428 2.73541 9.1175C2.79623 9.16071 2.86876 9.18438 2.94337 9.18536H9.41222C9.59822 9.18241 9.77841 9.25013 9.91643 9.37485C10.0544 9.49956 10.14 9.67199 10.1559 9.85733C10.162 9.95516 10.148 10.0532 10.1147 10.1454C10.0815 10.2376 10.0296 10.322 9.96246 10.3934C9.89528 10.4648 9.81417 10.5216 9.72416 10.5604C9.63414 10.5992 9.53712 10.6191 9.4391 10.6189H2.94337C2.86876 10.6199 2.79623 10.6435 2.73541 10.6868C2.67459 10.73 2.62837 10.7907 2.6029 10.8608L0.0852397 17.8941C0.0096974 18.1108 -0.0130652 18.3424 0.0188424 18.5696C0.0507499 18.7968 0.136407 19.0132 0.2687 19.2007C0.400994 19.3882 0.576106 19.5414 0.779496 19.6476C0.982887 19.7539 1.20869 19.81 1.43815 19.8115C1.68232 19.8104 1.92242 19.7488 2.137 19.6323L17.2698 11.1565C17.4915 11.0306 17.6759 10.8482 17.8042 10.6278C17.9324 10.4075 18 10.1571 18 9.90213C18 9.64718 17.9324 9.39678 17.8042 9.17644C17.6759 8.95609 17.4915 8.77368 17.2698 8.64778Z" fill="#5653FC"/>
</svg>
